# xmcd CD database file
#
# Track frame offsets:
#	150
#	17142
#	34385
#	50270
#	72112
#	79590
#	95372
#	108040
#	137800
#	146222
#
# Disc length: 2278 seconds
#
# Revision: 0
# Processed by: cddbd v1.5.1PL2 Copyright (c) Steve Scherf et al.
# Submitted via: CDex 1.51
#
DISCID=8208e40a
DTITLE=マルカート - これからも
DYEAR=2002
DGENRE=JPop
TTITLE0=どこまでも
TTITLE1=いつもあなたとふたり
TTITLE2=佇む人
TTITLE3=商店街
TTITLE4=ゴンドラ
TTITLE5=ロマンチック航空
TTITLE6=予感
TTITLE7=願いごとの夜
TTITLE8=おやすみ
TTITLE9=傘もなく
EXTD=YEAR: 2002
EXTT0=
EXTT1=
EXTT2=
EXTT3=
EXTT4=
EXTT5=
EXTT6=
EXTT7=
EXTT8=
EXTT9=
PLAYORDER=
